<?xml version="1.0" encoding="UTF-8" standalone="no"?>
<svg
   xmlns:dc="http://purl.org/dc/elements/1.1/"
   xmlns:cc="http://creativecommons.org/ns#"
   xmlns:rdf="http://www.w3.org/1999/02/22-rdf-syntax-ns#"
   xmlns:svg="http://www.w3.org/2000/svg"
   xmlns="http://www.w3.org/2000/svg"
   xmlns:sodipodi="http://sodipodi.sourceforge.net/DTD/sodipodi-0.dtd"
   xmlns:inkscape="http://www.inkscape.org/namespaces/inkscape"
   xml:space="preserve"
   enable-background="new -3.5 -3.5 695 185"
   viewBox="-3.5 -3.5 175.74999 175.75"
   height="175.75"
   width="175.75"
   id="agc-logo"
   version="1.1"
   inkscape:version="0.91 r13725"
   sodipodi:docname="AGC-Logo.svg"
   inkscape:export-filename="/Users/nicholasbering/Documents/AGC-Logo.png"
   inkscape:export-xdpi="300"
   inkscape:export-ydpi="300"><sodipodi:namedview
     pagecolor="#ffffff"
     bordercolor="#666666"
     borderopacity="1"
     objecttolerance="10"
     gridtolerance="10"
     guidetolerance="10"
     inkscape:pageopacity="0"
     inkscape:pageshadow="2"
     inkscape:window-width="1671"
     inkscape:window-height="997"
     id="namedview4918"
     showgrid="false"
     inkscape:zoom="1.3428165"
     inkscape:cx="-26.145044"
     inkscape:cy="87.875"
     inkscape:window-x="0"
     inkscape:window-y="0"
     inkscape:window-maximized="0"
     inkscape:current-layer="agc-logo"
     borderlayer="false" /><metadata
     id="metadata4482"><rdf:RDF><cc:Work
         rdf:about=""><dc:format>image/svg+xml</dc:format><dc:type
           rdf:resource="http://purl.org/dc/dcmitype/StillImage" /><dc:title></dc:title></cc:Work></rdf:RDF></metadata><defs
     id="defs4480" /><g
     transform="translate(0.86699237,-4.375)"
     style="display:inline"
     id="shield-colors"><polygon
       style="fill:#b3b3b3"
       id="shield-color-background"
       points="13.621,138.311 83.331,176.625 153.4,137.792 166.462,29.46 83.243,0.875 0.554,29.975 " /><polygon
       style="fill:#0d8fa6;fill-opacity:1"
       id="shield-color-dark"
       points="146.041,132.609 158.214,35.721 83.05,10.089 83.05,167.471 " /><polygon
       style="fill:#16bfdd;fill-opacity:1"
       id="shield-color-light"
       points="83.049,10.086 9.833,36.183 21.03,133.072 83.049,167.471 " /></g><g
     style="display:inline"
     id="charts"
     transform="translate(5.3411701,0)"><path
       id="chart-bar-green"
       d="M 25.217815,101.16636 39.689004,109.03802 39.594644,138.254 25.005,130.23096 Z"
       style="display:inline;fill:#00b400;fill-opacity:1;stroke:none;stroke-width:5;stroke-miterlimit:4;stroke-dasharray:none;stroke-opacity:1"
       transform="translate(-4.054,-4.375)"
       inkscape:connector-curvature="0" /><path
       id="chart-bar-red"
       d="M 44.222,97.930719 59.057378,106.11208 58.853432,148.491 44.222001,140.93103 Z"
       style="display:inline;fill:#ff0516;fill-opacity:0.94117647;stroke:none;stroke-width:5;stroke-miterlimit:4;stroke-dasharray:none;stroke-opacity:1"
       transform="translate(-4.054,-4.375)"
       inkscape:connector-curvature="0" /><path
       id="chart-bar-blue"
       d="m 64.349485,93.087018 14.683677,7.871652 0,58.58333 -14.5323,-8.02302 z"
       style="display:inline;fill:#000ff0;fill-opacity:0.94117647;stroke:none;stroke-width:5;stroke-miterlimit:4;stroke-dasharray:none;stroke-opacity:1"
       transform="translate(-4.054,-4.375)"
       inkscape:connector-curvature="0" /><path
       id="chart-haxis"
       d="m 83.088286,68.723299 -0.151378,93.551681 0,0"
       style="display:inline;fill:none;fill-rule:evenodd;stroke:#000000;stroke-width:1px;stroke-linecap:butt;stroke-linejoin:miter;stroke-opacity:1"
       transform="translate(-4.054,-4.375)"
       inkscape:connector-curvature="0" /><path
       id="chart-vaxes"
       d="M 22.839793,129.12317 82.936908,162.1236 143.33678,129.12317"
       style="display:inline;fill:none;fill-rule:evenodd;stroke:#000000;stroke-width:1px;stroke-linecap:butt;stroke-linejoin:miter;stroke-opacity:1"
       transform="translate(-4.054,-4.375)"
       inkscape:connector-curvature="0" /><path
       id="chart-line-red"
       d="m 83.239664,139.87102 13.775406,-23.16086 21.34432,10.29372 3.78445,-33.151813 15.74333,-23.917743"
       style="display:inline;fill:none;fill-opacity:1;fill-rule:evenodd;stroke:#d90000;stroke-width:1px;stroke-linecap:butt;stroke-linejoin:miter;stroke-opacity:1"
       transform="translate(-4.054,-4.375)"
       inkscape:connector-curvature="0" /><path
       id="chart-line-blue"
       d="m 83.088285,150.46748 19.981915,-21.79845 8.17442,-19.83053 14.83505,9.83958 9.08269,-20.284668"
       style="display:inline;fill:none;fill-rule:evenodd;stroke:#0000ba;stroke-width:1px;stroke-linecap:butt;stroke-linejoin:miter;stroke-opacity:1"
       transform="translate(-4.054,-4.375)"
       inkscape:connector-curvature="0" /></g><g
     transform="translate(0.86699237,-4.375)"
     style="display:inline"
     id="agc"><g
       id="agc-dark"><path
         d="m 132.61689,49.604012 9.69238,2.929687 q -0.97656,4.077148 -3.07617,6.811523 -2.09961,2.734375 -5.22461,4.125977 -3.10059,1.391602 -7.91016,1.391602 -5.83496,0 -9.5459,-1.684571 -3.68652,-1.708984 -6.37207,-5.981445 -2.68554,-4.272461 -2.68554,-10.9375 0,-8.886719 4.71191,-13.647461 4.73633,-4.785156 13.37891,-4.785156 6.76269,0 10.62011,2.734375 3.88184,2.734375 5.76172,8.398437 l -9.76562,2.172852 q -0.5127,-1.635742 -1.07422,-2.392578 -0.92774,-1.269532 -2.27051,-1.953125 -1.34277,-0.683594 -3.00293,-0.683594 -3.75976,0 -5.76172,3.027344 -1.51367,2.246093 -1.51367,7.055664 0,5.957031 1.80664,8.178711 1.80664,2.197265 5.07813,2.197265 3.17382,0 4.78515,-1.782226 1.63574,-1.782227 2.36817,-5.175781 z"
         style="font-style:normal;font-variant:normal;font-weight:900;font-stretch:normal;font-size:50px;font-family:'Arial Black';-inkscape-font-specification:'Arial Black, Heavy';fill:#b3b3b3;fill-opacity:1"
         id="agc-c"
         inkscape:connector-curvature="0" /><path
         d="m 85.180363,51.264168 0,-7.446289 17.089847,0 0,15.258789 q -4.90723,3.344726 -8.69141,4.565429 -3.759765,1.19629 -8.935547,1.19629 -6.37207,0 -10.40039,-2.172852 -4.003907,-2.172852 -6.225586,-6.469727 -2.197266,-4.296875 -2.197266,-9.863281 0,-5.859375 2.416992,-10.180664 2.416993,-4.345703 7.080078,-6.591797 3.637696,-1.733398 9.79004,-1.733398 5.932617,0 8.862304,1.074219 2.954102,1.074218 4.882813,3.344726 1.953122,2.246094 2.929692,5.712891 l -10.66895,1.904297 q -0.65918,-2.026368 -2.246094,-3.100586 -1.5625,-1.074219 -4.003906,-1.074219 -3.637695,0 -5.810547,2.539062 -2.148437,2.514649 -2.148437,7.983399 0,5.810547 2.172851,8.300781 2.197266,2.490234 6.103516,2.490234 1.855468,0 3.540039,-0.537109 1.68457,-0.537109 3.857422,-1.831055 l 0,-3.36914 -7.397461,0 z"
         style="font-style:normal;font-variant:normal;font-weight:900;font-stretch:normal;font-size:50px;font-family:'Arial Black';-inkscape-font-specification:'Arial Black, Heavy';fill:#b3b3b3;fill-opacity:1"
         id="agc-g-dark"
         inkscape:connector-curvature="0" /></g><g
       id="agc-light"
       style="font-style:normal;font-weight:normal;font-size:60px;line-height:125%;font-family:Sans;letter-spacing:0px;word-spacing:0px;fill:#f2f2f2;fill-opacity:1;stroke:none;stroke-width:1px;stroke-linecap:butt;stroke-linejoin:miter;stroke-opacity:1"><path
         id="agc-g-light"
         d="m 83.050781,27.878177 c -3.083932,0.176143 -5.760752,0.635606 -7.734375,1.5817 -3.108723,1.50638 -5.468749,3.716829 -7.080078,6.631348 -1.611328,2.898144 -2.416016,6.311077 -2.416016,10.240765 0,3.733204 0.732422,7.04069 2.197266,9.922461 1.481119,2.881771 3.555338,5.052268 6.22461,6.509528 2.3161,1.256787 5.330323,1.862683 8.808593,2.035578 l 0,-8.11677 c -1.565351,-0.35467 -2.958002,-0.962964 -3.974609,-2.122031 -1.448567,-1.670117 -2.171875,-4.453645 -2.171875,-8.350586 0,-3.667709 0.716146,-6.34579 2.148437,-8.032282 1.047298,-1.231151 2.440288,-1.859581 3.998047,-2.200625 l 0,-8.099086 z"
         style="font-style:normal;font-variant:normal;font-weight:900;font-stretch:normal;font-size:50px;font-family:'Arial Black';-inkscape-font-specification:'Arial Black, Heavy';fill:#f2f2f2;fill-opacity:1"
         inkscape:connector-curvature="0" /><path
         id="agc-a"
         style="font-style:normal;font-variant:normal;font-weight:900;font-stretch:normal;font-size:50px;font-family:'Arial Black';-inkscape-font-specification:'Arial Black, Heavy';fill:#f2f2f2;fill-opacity:1"
         d="m 50.341496,58.319832 -12.597657,0 -1.733398,5.908203 -11.303711,0 13.452148,-35.791016 12.060547,0 13.452149,35.791016 -11.572266,0 -1.757812,-5.908203 z m -2.319336,-7.739258 -3.955079,-12.866211 -3.930664,12.866211 7.885743,0 z"
         inkscape:connector-curvature="0" /></g></g></svg>